<?xml version="1.0" encoding="UTF-8" standalone="no"?><!DOCTYPE svg PUBLIC "-//W3C//DTD SVG 1.1//EN" "http://www.w3.org/Graphics/SVG/1.1/DTD/svg11.dtd"><svg width="100%" height="100%" viewBox="0 0 3146 1092" version="1.1" xmlns="http://www.w3.org/2000/svg" xmlns:xlink="http://www.w3.org/1999/xlink" xml:space="preserve" xmlns:serif="http://www.serif.com/" style="fill-rule:evenodd;clip-rule:evenodd;stroke-linejoin:round;stroke-miterlimit:2;"><g id="Artboard1"><rect x="0" y="-0.002" width="3145.454" height="1090.906" style="fill:none;"/><g id="Background"><path d="M1496.201,863.831c-0.308,-557.505 2.228,-558.037 0.51,-560.31c-8.88,-11.735 -7.766,5.045 -97.187,156.256c-52.837,89.354 -113.524,218.695 -132.729,220.476c-75.592,7.015 -71.896,-16.254 -75.351,-22.2c-196.288,-337.259 -208.6,-380.662 -208.886,-348.177c-2.072,237.715 5.364,237.222 1.965,475.413c-0.19,13.544 -6.831,14.115 -109.863,12.704c-17.71,-0.246 -14.815,-9.949 -14.619,-202.906c0.526,-511.252 -3.863,-518.441 8.947,-521.324c1.808,-0.409 108.256,-1.803 117.539,1.142c12.614,4.003 92.12,157.594 209.911,361.928c39.428,68.386 42.239,72.551 46.662,67.232c9.563,-11.5 206.142,-364.946 223.858,-396.798c13.365,-24.031 9.026,-29.064 23.678,-32.821c3.796,-0.98 121.682,-3.483 127.499,1.417c7.099,5.974 2.29,203.108 3.701,306.459c1.041,76.695 -0.218,443.359 -0.353,481.908c-61.605,5.946 -115.311,0.599 -125.282,-0.398Z" style="fill:#f86f04;"/><path d="M160.939,549.131c72.557,-168.506 73.005,-167.907 145.875,-335.937c57.714,-133.087 56.701,-139.593 75.194,-139.767c103.183,-0.963 103.301,-1.221 111.89,1.288c13.471,3.925 73.856,160.847 103.765,224.916c14.826,31.752 67.798,154.038 73.615,167.465c134.94,311.504 153.49,331.307 125.165,331.201c-103.469,-0.386 -103.267,-0.095 -106.632,-0.633c-22.945,-3.662 -65.194,-159.525 -84.102,-162.051c-9.412,-1.254 -336.738,-0.834 -341.178,-0.314c-21.198,2.48 -49.881,100.546 -74.69,149.212c-7.732,15.162 -11.713,14.485 -121.497,13.729c-23.163,-0.162 -7.318,-16.192 92.596,-249.109Zm324.885,-216.041c-13.969,-30.649 -48.683,-116.05 -49.825,-116.005c-5.929,0.23 -8.001,0.314 -34.893,65.452c-94.079,227.866 -104.756,234.652 -91.481,238.527c0.56,0.162 234.12,0.319 240.29,0.269c27.676,-0.218 -11.31,-56.577 -64.091,-188.243Z" style="fill:#f87004;"/><path d="M2834.38,402.438c205.515,0.028 210.174,-1.445 212.223,8.012c0.605,2.794 1.041,269.332 -0.112,279.718c-1.904,17.116 -145.416,144.268 -341.01,124.482c-394.799,-39.943 -466.242,-579.436 -106.436,-729.51c213.908,-89.219 443.297,63.179 424.121,88.973c-1.708,2.29 -68.548,78.156 -71.376,79.113c-12.81,4.334 -104.566,-105.104 -262.44,-70.121c-254.125,56.309 -270.956,470.301 32.967,513.385c91.207,12.928 199.799,-42.563 202.061,-67.77c0.129,-1.422 1.394,-106.419 -1.249,-111.615c-7.615,-14.972 -181.776,4.412 -188.343,-12.088c-0.123,-0.314 -5.722,-96.442 4.11,-100.837c5.089,-2.273 53.509,-1.702 95.485,-1.741Z" style="fill:#f86f04;"/><path d="M2193.618,315.201c-1.551,-15.582 -12.547,-126.021 -148.725,-127.208c-173.652,-1.512 -177.05,6.685 -205.56,-14.888c-99.415,-75.205 -100.451,-76.846 -100.552,-87.506c-0.162,-17.598 48.409,-12.486 59.791,-12.441c274.327,1.109 292.204,-6.12 375.097,23.672c192.789,69.281 210.879,371.317 -5.095,443.129c-17.984,5.98 38.918,69.965 86.649,140.73c41.964,62.221 81.101,108.519 75.009,115.708c-3.074,3.634 -131.06,1.64 -134.336,1.103c-13.869,-2.268 -152.135,-218.947 -164.189,-227.766c-10.078,-7.368 -159.481,-2.676 -160.276,-2.408c-14.921,5.028 -2.206,211.523 -7.419,223.163c-6.769,15.123 -121.027,5.918 -121.223,5.795c-4.714,-2.979 -4.742,-46.007 -4.742,-50.032c-0.028,-44.299 -0.33,-549.997 0.179,-553.798c1.517,-11.433 10.162,-5.336 119.902,80.026c7.783,6.058 6.64,12.502 6.758,137.835c0.028,29.579 -12.284,44.349 17.659,44.512c205.42,1.109 300.02,14.932 311.072,-139.627Z" style="fill:#f86f04;"/><path d="M1496.201,863.831c9.972,0.997 63.677,6.344 125.282,0.398c0.593,108.519 5.476,125.904 -13.32,126.066c-106.201,0.918 -109.264,-0.347 -111.285,-9.048c-2.01,-8.645 -0.885,-8.466 -0.677,-117.416Z" style="fill:#f8993c;"/><path d="M314.826,798.183c-2.251,0.006 -55.738,3.858 -54.976,-7.116c0.202,-2.889 37.603,-84.533 40.559,-87.193c7.889,-7.094 120.193,-3.107 121.01,-2.783c6.607,2.598 5.912,6.086 -30.022,83.486c-8.88,19.137 -33.196,13.779 -76.571,13.605Z" style="fill:#f77007;"/></g><g><g><g transform="matrix(1,0,0,1,0,0.000188)"><text x="1729.324px" y="989.718px" style="font-family:'Montserrat-Regular', 'Montserrat';font-size:150.002px;fill:#808080;">P</text></g><g transform="matrix(1,0,0,1,0,0.000188)"><text x="1906.47px" y="989.718px" style="font-family:'Montserrat-Regular', 'Montserrat';font-size:150.002px;fill:#808080;">R<tspan x="2091.125px 2284.331px 2435.373px 2609.966px 2790.725px 2953.779px " y="989.718px 989.718px 989.718px 989.718px 989.718px 989.718px ">OJECTS</tspan></text></g></g></g></g></svg>