<?xml version="1.0" encoding="UTF-8" standalone="no"?>
<!DOCTYPE svg PUBLIC "-//W3C//DTD SVG 1.1//EN" "http://www.w3.org/Graphics/SVG/1.1/DTD/svg11.dtd">
<svg width="100%" height="100%" viewBox="0 0 755 262" version="1.1" xmlns="http://www.w3.org/2000/svg" xmlns:xlink="http://www.w3.org/1999/xlink" xml:space="preserve" xmlns:serif="http://www.serif.com/" style="fill-rule:evenodd;clip-rule:evenodd;stroke-linejoin:round;stroke-miterlimit:2;">
    <g id="Artboard1" transform="matrix(0.910526,0,0,0.895522,-255.14295,-221.891964)">
        <rect x="280.215" y="247.779" width="829.091" height="292.363" style="fill:none;"/>
        <g id="Background" transform="matrix(1.475795,0,0,1.500521,-64.041609,-55.649422)">
            <path d="M500.497,356.5C500.442,256.927 500.895,256.832 500.588,256.426C499.002,254.33 499.201,257.327 483.23,284.334C473.793,300.293 462.954,323.394 459.524,323.712C446.023,324.965 446.683,320.809 446.066,319.747C411.008,259.511 408.809,251.759 408.758,257.561C408.388,300.018 409.716,299.93 409.109,342.472C409.075,344.891 407.889,344.993 389.487,344.741C386.324,344.697 386.841,342.964 386.876,308.501C386.97,217.189 386.186,215.905 388.474,215.39C388.797,215.317 407.809,215.068 409.467,215.594C411.72,216.309 425.92,243.741 446.958,280.236C454,292.45 454.502,293.194 455.292,292.244C457,290.19 492.11,227.063 495.274,221.374C497.661,217.082 496.886,216.183 499.503,215.512C500.181,215.337 521.236,214.89 522.275,215.765C523.543,216.832 522.684,252.041 522.936,270.5C523.122,284.198 522.897,349.686 522.873,356.571C511.87,357.633 502.278,356.678 500.497,356.5Z" style="fill:rgb(248,111,4);"/>
            <path d="M262.013,300.293C274.972,270.197 275.052,270.304 288.067,240.293C298.375,216.523 298.194,215.361 301.497,215.33C319.926,215.158 319.947,215.112 321.481,215.56C323.887,216.261 334.672,244.288 340.014,255.731C342.662,261.402 352.123,283.243 353.162,285.641C377.263,341.277 380.576,344.814 375.517,344.795C357.037,344.726 357.073,344.778 356.472,344.682C352.374,344.028 344.828,316.19 341.451,315.739C339.77,315.515 281.308,315.59 280.515,315.683C276.729,316.126 271.606,333.641 267.175,342.333C265.794,345.041 265.083,344.92 245.475,344.785C241.338,344.756 244.168,341.893 262.013,300.293ZM320.039,261.707C317.544,256.233 311.344,240.98 311.14,240.988C310.081,241.029 309.711,241.044 304.908,252.678C288.105,293.376 286.198,294.588 288.569,295.28C288.669,295.309 330.384,295.337 331.486,295.328C336.429,295.289 329.466,285.223 320.039,261.707Z" style="fill:rgb(248,112,4);"/>
            <path d="M739.502,274.093C776.208,274.098 777.04,273.835 777.406,275.524C777.514,276.023 777.592,323.628 777.386,325.483C777.046,328.54 751.414,351.25 716.48,347.716C645.967,340.582 633.207,244.226 697.47,217.422C735.675,201.487 776.645,228.706 773.22,233.313C772.915,233.722 760.977,247.272 760.472,247.443C758.184,248.217 741.796,228.671 713.599,234.919C668.211,244.976 665.205,318.917 719.487,326.612C735.777,328.921 755.172,319.01 755.576,314.508C755.599,314.254 755.825,295.501 755.353,294.573C753.993,291.899 722.887,295.361 721.714,292.414C721.692,292.358 720.692,275.189 722.448,274.404C723.357,273.998 732.005,274.1 739.502,274.093Z" style="fill:rgb(248,111,4);"/>
            <path d="M625.059,258.512C624.782,255.729 622.818,236.004 598.496,235.792C567.481,235.522 566.874,236.986 561.782,233.133C544.026,219.701 543.841,219.408 543.823,217.504C543.794,214.361 552.469,215.274 554.502,215.282C603.498,215.48 606.691,214.189 621.496,219.51C655.929,231.884 659.16,285.829 620.586,298.655C617.374,299.723 627.537,311.151 636.062,323.79C643.557,334.903 650.547,343.172 649.459,344.456C648.91,345.105 626.051,344.749 625.466,344.653C622.989,344.248 598.294,305.548 596.141,303.973C594.341,302.657 567.657,303.495 567.515,303.543C564.85,304.441 567.121,341.322 566.19,343.401C564.981,346.102 544.574,344.458 544.539,344.436C543.697,343.904 543.692,336.219 543.692,335.5C543.687,327.588 543.633,237.268 543.724,236.589C543.995,234.547 545.539,235.636 565.139,250.882C566.529,251.964 566.325,253.115 566.346,275.5C566.351,280.783 564.152,283.421 569.5,283.45C606.189,283.648 623.085,286.117 625.059,258.512Z" style="fill:rgb(248,111,4);"/>
            <path d="M500.497,356.5C502.278,356.678 511.87,357.633 522.873,356.571C522.979,375.953 523.851,379.058 520.494,379.087C501.526,379.251 500.979,379.025 500.618,377.471C500.259,375.927 500.46,375.959 500.497,356.5Z" style="fill:rgb(248,153,60);"/>
            <path d="M289.498,344.775C289.096,344.776 279.543,345.464 279.679,343.504C279.715,342.988 286.395,328.406 286.923,327.931C288.332,326.664 308.39,327.376 308.536,327.434C309.716,327.898 309.592,328.521 303.174,342.345C301.588,345.763 297.245,344.806 289.498,344.775Z" style="fill:rgb(247,112,7);"/>
        </g>
        <g transform="matrix(4.98589,0,0,5.069425,-2833.581271,-2437.09237)">
            <g transform="matrix(7.929893,0,0,7.929893,785.608144,581.942928)">
            </g>
            <text x="715.944px" y="581.943px" style="font-family:'Montserrat-Regular', 'Montserrat';font-size:7.93px;">P<tspan x="725.309px 735.071px 745.285px 753.27px 762.5px 772.056px 780.676px " y="581.943px 581.943px 581.943px 581.943px 581.943px 581.943px 581.943px ">ROJECTS</tspan></text>
        </g>
    </g>
</svg>
